<svg width="199" height="65" viewBox="0 0 199 65" fill="none" xmlns="http://www.w3.org/2000/svg">
<path d="M84.2426 22.9133C86.4369 22.9133 88.3619 23.3422 90.0176 24.2C91.6933 25.0577 92.98 26.2845 93.8776 27.8804C94.7952 29.4563 95.254 31.2915 95.254 33.3861C95.254 35.4807 94.7952 37.3159 93.8776 38.8918C92.98 40.4478 91.6933 41.6546 90.0176 42.5124C88.3619 43.3702 86.4369 43.7991 84.2426 43.7991H76.9416V22.9133H84.2426ZM84.093 40.2383C86.2873 40.2383 87.9829 39.6399 89.1798 38.443C90.3767 37.2461 90.9752 35.5605 90.9752 33.3861C90.9752 31.2118 90.3767 29.5162 89.1798 28.2993C87.9829 27.0625 86.2873 26.4441 84.093 26.4441H81.1307V40.2383H84.093ZM100.514 25.2472C99.7762 25.2472 99.1578 25.0178 98.6591 24.559C98.1804 24.0803 97.941 23.4918 97.941 22.7936C97.941 22.0954 98.1804 21.5169 98.6591 21.0581C99.1578 20.5794 99.7762 20.34 100.514 20.34C101.252 20.34 101.861 20.5794 102.34 21.0581C102.838 21.5169 103.088 22.0954 103.088 22.7936C103.088 23.4918 102.838 24.0803 102.34 24.559C101.861 25.0178 101.252 25.2472 100.514 25.2472ZM102.579 27.2221V43.7991H98.3898V27.2221H102.579ZM113.63 39.9391L117.819 27.2221H122.277L116.143 43.7991H111.057L104.952 27.2221H109.441L113.63 39.9391ZM140.04 35.1515C140.04 35.75 140 36.2886 139.921 36.7673H127.802C127.902 37.9642 128.321 38.9018 129.059 39.58C129.797 40.2583 130.705 40.5974 131.782 40.5974C133.338 40.5974 134.445 39.9291 135.103 38.5926H139.621C139.143 40.1884 138.225 41.505 136.868 42.5423C135.512 43.5597 133.846 44.0684 131.871 44.0684C130.276 44.0684 128.839 43.7193 127.563 43.0211C126.306 42.303 125.318 41.2956 124.6 39.9989C123.902 38.7023 123.553 37.2062 123.553 35.5106C123.553 33.795 123.902 32.289 124.6 30.9923C125.299 29.6957 126.276 28.6983 127.533 28.0001C128.789 27.3019 130.236 26.9528 131.871 26.9528C133.447 26.9528 134.854 27.2919 136.091 27.9702C137.347 28.6484 138.315 29.6159 138.993 30.8726C139.691 32.1094 140.04 33.5357 140.04 35.1515ZM135.702 33.9546C135.682 32.8774 135.293 32.0197 134.535 31.3813C133.777 30.723 132.849 30.3939 131.752 30.3939C130.714 30.3939 129.837 30.713 129.119 31.3514C128.42 31.9698 127.992 32.8375 127.832 33.9546H135.702ZM150.309 44.0085C148.853 44.0085 147.536 43.7592 146.359 43.2605C145.202 42.7618 144.285 42.0436 143.607 41.1061C142.928 40.1685 142.579 39.0614 142.559 37.7847H147.048C147.108 38.6425 147.407 39.3207 147.945 39.8194C148.504 40.3181 149.262 40.5675 150.219 40.5675C151.197 40.5675 151.965 40.3381 152.523 39.8792C153.082 39.4005 153.361 38.7821 153.361 38.0241C153.361 37.4057 153.172 36.897 152.793 36.498C152.414 36.0991 151.935 35.7899 151.357 35.5704C150.798 35.3311 150.02 35.0717 149.023 34.7925C147.666 34.3935 146.559 34.0045 145.701 33.6255C144.863 33.2265 144.135 32.6381 143.517 31.8601C142.918 31.0621 142.619 30.0049 142.619 28.6883C142.619 27.4515 142.928 26.3743 143.547 25.4567C144.165 24.5391 145.033 23.8409 146.15 23.3621C147.267 22.8634 148.544 22.6141 149.98 22.6141C152.134 22.6141 153.88 23.1427 155.216 24.2C156.573 25.2373 157.321 26.6935 157.461 28.5686H152.853C152.813 27.8505 152.504 27.262 151.925 26.8032C151.366 26.3244 150.618 26.0851 149.681 26.0851C148.863 26.0851 148.205 26.2945 147.706 26.7134C147.227 27.1323 146.988 27.7408 146.988 28.5387C146.988 29.0972 147.167 29.566 147.526 29.945C147.905 30.3041 148.364 30.6033 148.903 30.8427C149.461 31.0621 150.239 31.3215 151.237 31.6207C152.593 32.0197 153.7 32.4186 154.558 32.8176C155.416 33.2165 156.154 33.815 156.772 34.6129C157.391 35.4109 157.7 36.4581 157.7 37.7548C157.7 38.8719 157.411 39.9092 156.832 40.8667C156.254 41.8242 155.406 42.5922 154.289 43.1707C153.172 43.7293 151.845 44.0085 150.309 44.0085ZM176.742 35.1515C176.742 35.75 176.702 36.2886 176.622 36.7673H164.504C164.603 37.9642 165.022 38.9018 165.76 39.58C166.498 40.2583 167.406 40.5974 168.483 40.5974C170.039 40.5974 171.146 39.9291 171.805 38.5926H176.323C175.844 40.1884 174.927 41.505 173.57 42.5423C172.214 43.5597 170.548 44.0684 168.573 44.0684C166.977 44.0684 165.541 43.7193 164.264 43.0211C163.008 42.303 162.02 41.2956 161.302 39.9989C160.604 38.7023 160.255 37.2062 160.255 35.5106C160.255 33.795 160.604 32.289 161.302 30.9923C162 29.6957 162.978 28.6983 164.234 28.0001C165.491 27.3019 166.937 26.9528 168.573 26.9528C170.149 26.9528 171.555 27.2919 172.792 27.9702C174.049 28.6484 175.016 29.6159 175.695 30.8726C176.393 32.1094 176.742 33.5357 176.742 35.1515ZM172.403 33.9546C172.383 32.8774 171.994 32.0197 171.236 31.3813C170.478 30.723 169.551 30.3939 168.453 30.3939C167.416 30.3939 166.538 30.713 165.82 31.3514C165.122 31.9698 164.693 32.8375 164.534 33.9546H172.403ZM178.722 35.4507C178.722 33.7751 179.051 32.289 179.71 30.9923C180.388 29.6957 181.296 28.6983 182.433 28.0001C183.59 27.3019 184.876 26.9528 186.293 26.9528C187.529 26.9528 188.607 27.2022 189.524 27.7009C190.462 28.1996 191.21 28.8279 191.768 29.586V27.2221H195.988V43.7991H191.768V41.3754C191.23 42.1533 190.482 42.8017 189.524 43.3203C188.587 43.819 187.5 44.0684 186.263 44.0684C184.866 44.0684 183.59 43.7093 182.433 42.9912C181.296 42.273 180.388 41.2656 179.71 39.969C179.051 38.6524 178.722 37.1463 178.722 35.4507ZM191.768 35.5106C191.768 34.4932 191.569 33.6255 191.17 32.9074C190.771 32.1693 190.232 31.6107 189.554 31.2317C188.876 30.8327 188.148 30.6333 187.37 30.6333C186.592 30.6333 185.874 30.8228 185.215 31.2018C184.557 31.5808 184.019 32.1393 183.6 32.8774C183.201 33.5956 183.001 34.4533 183.001 35.4507C183.001 36.4482 183.201 37.3259 183.6 38.0839C184.019 38.822 184.557 39.3905 185.215 39.7895C185.894 40.1884 186.612 40.3879 187.37 40.3879C188.148 40.3879 188.876 40.1984 189.554 39.8194C190.232 39.4204 190.771 38.8619 191.17 38.1438C191.569 37.4057 191.768 36.528 191.768 35.5106Z" fill="white"/>
<path d="M57.5517 44.3078C55.1683 44.3078 54.1121 43.3869 52.6225 42.0869C50.9704 40.6786 48.9121 38.8911 45.0392 38.8911C41.1392 38.8911 39.1079 40.6786 37.4558 42.0869C35.9662 43.3869 34.8829 44.3078 32.4996 44.3078C30.1433 44.3078 29.06 43.3869 27.5704 42.0869C25.9183 40.6786 23.86 38.8911 19.9871 38.8911C16.0871 38.8911 14.0288 40.6786 12.3767 42.0869C10.8871 43.3869 9.83084 44.3078 7.44751 44.3078C6.33709 44.3078 5.41626 45.2286 5.41626 46.339C5.41626 47.4765 6.33709 48.3703 7.44751 48.3703C11.3475 48.3703 13.3787 46.6099 15.0308 45.1744C16.5204 43.8744 17.6038 42.9536 19.9871 42.9536C22.3704 42.9536 23.4267 43.8744 24.9163 45.1744C26.5684 46.6099 28.6267 48.3703 32.4996 48.3703C36.3996 48.3703 38.4579 46.6099 40.11 45.1744C41.5996 43.8744 42.6559 42.9536 45.0392 42.9536C47.3954 42.9536 48.4788 43.8744 49.9684 45.1744C51.6205 46.6099 53.6788 48.3703 57.5517 48.3703C58.6621 48.3703 59.5829 47.4765 59.5829 46.339C59.5829 45.2286 58.6621 44.3078 57.5517 44.3078Z" fill="white"/>
<path d="M57.5517 33.1503C55.1683 33.1503 54.1121 32.2024 52.6225 30.9295C50.9704 29.4941 48.9121 27.7336 45.0392 27.7336C41.1392 27.7336 39.1079 29.4941 37.4558 30.9295C35.9662 32.2024 34.8829 33.1503 32.4996 33.1503C30.1433 33.1503 29.06 32.2024 27.5704 30.9295C25.9183 29.4941 23.86 27.7336 19.9871 27.7336C16.0871 27.7336 14.0288 29.4941 12.3767 30.9295C10.8871 32.2024 9.83084 33.1503 7.44751 33.1503C6.33709 33.1503 5.41626 34.0441 5.41626 35.1816C5.41626 36.292 6.33709 37.2128 7.44751 37.2128C11.3475 37.2128 13.3787 35.4253 15.0308 33.9899C16.5204 32.717 17.6038 31.7961 19.9871 31.7961C22.3704 31.7961 23.4267 32.717 24.9163 33.9899C26.5684 35.4253 28.6267 37.2128 32.4996 37.2128C36.3996 37.2128 38.4579 35.4253 40.11 33.9899C41.5996 32.717 42.6559 31.7961 45.0392 31.7961C47.3954 31.7961 48.4788 32.717 49.9684 33.9899C51.6205 35.4253 53.6788 37.2128 57.5517 37.2128C58.6621 37.2128 59.5829 36.292 59.5829 35.1816C59.5829 34.0441 58.6621 33.1503 57.5517 33.1503Z" fill="white"/>
<path d="M7.44751 26.1086C11.3475 26.1086 13.3787 24.3211 15.0308 22.9127C16.5204 21.6127 17.6038 20.6919 19.9871 20.6919C22.3704 20.6919 23.4267 21.6127 24.9163 22.9127C26.5684 24.3211 28.6267 26.1086 32.4996 26.1086C36.3996 26.1086 38.4579 24.3211 40.11 22.9127C41.5996 21.6127 42.6559 20.6919 45.0392 20.6919C47.3954 20.6919 48.4788 21.6127 49.9684 22.9127C51.6205 24.3211 53.6788 26.1086 57.5517 26.1086C58.6621 26.1086 59.5829 25.1877 59.5829 24.0773C59.5829 22.9398 58.6621 22.0461 57.5517 22.0461C55.1683 22.0461 54.1121 21.1252 52.6225 19.8252C50.9704 18.3898 48.9121 16.6294 45.0392 16.6294C41.1392 16.6294 39.1079 18.3898 37.4558 19.8252C35.9662 21.1252 34.8829 22.0461 32.4996 22.0461C30.1433 22.0461 29.06 21.1252 27.5704 19.8252C25.9183 18.3898 23.86 16.6294 19.9871 16.6294C16.0871 16.6294 14.0288 18.3898 12.3767 19.8252C10.8871 21.1252 9.83084 22.0461 7.44751 22.0461C6.33709 22.0461 5.41626 22.9398 5.41626 24.0773C5.41626 25.1877 6.33709 26.1086 7.44751 26.1086Z" fill="white"/>
</svg>
