<svg width="78" height="14" viewBox="0 0 78 14" fill="none" xmlns="http://www.w3.org/2000/svg">
<g opacity="0.8">
<path d="M6.06578 1.40134C6.323 0.609708 7.44295 0.609708 7.70017 1.40134L8.6192 4.22982C8.73423 4.58385 9.06415 4.82355 9.43639 4.82355H12.4104C13.2428 4.82355 13.5889 5.88869 12.9155 6.37794L10.5094 8.12604C10.2083 8.34484 10.0823 8.73268 10.1973 9.08671L11.1163 11.9152C11.3735 12.7068 10.4675 13.3651 9.79408 12.8759L7.38803 11.1278C7.08688 10.909 6.67908 10.909 6.37792 11.1278L3.97188 12.8759C3.29847 13.3651 2.39241 12.7068 2.64963 11.9152L3.56866 9.08671C3.68369 8.73268 3.55767 8.34484 3.25652 8.12604L0.850471 6.37794C0.177066 5.88869 0.52315 4.82355 1.35553 4.82355H4.32956C4.70181 4.82355 5.03172 4.58385 5.14675 4.22982L6.06578 1.40134Z" fill="#F59E0B"/>
<path d="M22.0453 1.40134C22.3025 0.609708 23.4224 0.609708 23.6797 1.40134L24.5987 4.22982C24.7137 4.58385 25.0436 4.82355 25.4159 4.82355H28.3899C29.2223 4.82355 29.5684 5.88869 28.895 6.37794L26.4889 8.12604C26.1878 8.34484 26.0618 8.73268 26.1768 9.08671L27.0958 11.9152C27.353 12.7068 26.447 13.3651 25.7736 12.8759L23.3675 11.1278C23.0664 10.909 22.6586 10.909 22.3574 11.1278L19.9514 12.8759C19.278 13.3651 18.3719 12.7068 18.6291 11.9152L19.5481 9.08671C19.6632 8.73268 19.5372 8.34484 19.236 8.12604L16.83 6.37794C16.1566 5.88869 16.5026 4.82355 17.335 4.82355H20.3091C20.6813 4.82355 21.0112 4.58385 21.1262 4.22982L22.0453 1.40134Z" fill="#F59E0B"/>
<path d="M38.0233 1.40134C38.2805 0.609708 39.4005 0.609708 39.6577 1.40134L40.5767 4.22982C40.6918 4.58385 41.0217 4.82355 41.3939 4.82355H44.3679C45.2003 4.82355 45.5464 5.88869 44.873 6.37794L42.467 8.12604C42.1658 8.34484 42.0398 8.73268 42.1548 9.08671L43.0738 11.9152C43.3311 12.7068 42.425 13.3651 41.7516 12.8759L39.3456 11.1278C39.0444 10.909 38.6366 10.909 38.3354 11.1278L35.9294 12.8759C35.256 13.3651 34.3499 12.7068 34.6071 11.9152L35.5262 9.08671C35.6412 8.73268 35.5152 8.34484 35.214 8.12604L32.808 6.37794C32.1346 5.88869 32.4807 4.82355 33.313 4.82355H36.2871C36.6593 4.82355 36.9892 4.58385 37.1043 4.22982L38.0233 1.40134Z" fill="#F59E0B"/>
<path d="M54.0038 1.40134C54.261 0.609708 55.3809 0.609708 55.6382 1.40134L56.5572 4.22982C56.6722 4.58385 57.0021 4.82355 57.3744 4.82355H60.3484C61.1808 4.82355 61.5269 5.88869 60.8535 6.37794L58.4474 8.12604C58.1463 8.34484 58.0203 8.73268 58.1353 9.08671L59.0543 11.9152C59.3115 12.7068 58.4055 13.3651 57.7321 12.8759L55.326 11.1278C55.0249 10.909 54.6171 10.909 54.3159 11.1278L51.9099 12.8759C51.2365 13.3651 50.3304 12.7068 50.5876 11.9152L51.5066 9.08671C51.6217 8.73268 51.4957 8.34484 51.1945 8.12604L48.7885 6.37794C48.1151 5.88869 48.4611 4.82355 49.2935 4.82355H52.2675C52.6398 4.82355 52.9697 4.58385 53.0847 4.22982L54.0038 1.40134Z" fill="#F59E0B"/>
<path d="M69.9828 1.40134C70.24 0.609708 71.3599 0.609708 71.6172 1.40134L72.5362 4.22982C72.6512 4.58385 72.9811 4.82355 73.3534 4.82355H76.3274C77.1598 4.82355 77.5059 5.88869 76.8325 6.37794L74.4264 8.12604C74.1253 8.34484 73.9993 8.73268 74.1143 9.08671L75.0333 11.9152C75.2905 12.7068 74.3845 13.3651 73.7111 12.8759L71.305 11.1278C71.0039 10.909 70.5961 10.909 70.2949 11.1278L67.8889 12.8759C67.2155 13.3651 66.3094 12.7068 66.5666 11.9152L67.4856 9.08671C67.6007 8.73268 67.4747 8.34484 67.1735 8.12604L64.7675 6.37794C64.0941 5.88869 64.4401 4.82355 65.2725 4.82355H68.2466C68.6188 4.82355 68.9487 4.58385 69.0637 4.22982L69.9828 1.40134Z" fill="#F59E0B"/>
</g>
</svg>
