<svg width="26" height="26" viewBox="0 0 26 26" fill="none" xmlns="http://www.w3.org/2000/svg">
<path d="M17.9935 2.56201H7.20526C5.58912 2.56201 4.26685 3.8738 4.26685 5.50043V20.6018C4.26685 22.2285 5.58912 23.5508 7.20526 23.5508H17.9935C19.6201 23.5508 20.9319 22.2285 20.9319 20.6018V5.50043C20.9319 3.8738 19.6201 2.56201 17.9935 2.56201ZM8.28621 17.7054H16.9126C17.3533 17.7054 17.6996 18.0622 17.6996 18.4925C17.6996 18.9228 17.3533 19.2796 16.9126 19.2796H8.28621C7.85594 19.2796 7.49913 18.9228 7.49913 18.4925C7.49913 18.0622 7.85594 17.7054 8.28621 17.7054ZM7.49913 13.0984C7.49913 12.6681 7.85594 12.3113 8.28621 12.3113H16.9126C17.3533 12.3113 17.6996 12.6681 17.6996 13.0984C17.6996 13.5391 17.3533 13.8854 16.9126 13.8854H8.28621C7.85594 13.8854 7.49913 13.5391 7.49913 13.0984ZM16.9126 8.49133H8.28621C7.85594 8.49133 7.49913 8.14502 7.49913 7.70425C7.49913 7.27398 7.85594 6.91717 8.28621 6.91717H16.9126C17.3533 6.91717 17.6996 7.27398 17.6996 7.70425C17.6996 8.14502 17.3533 8.49133 16.9126 8.49133Z" fill="black"/>
</svg>
