<svg width="26" height="26" viewBox="0 0 26 26" fill="none" xmlns="http://www.w3.org/2000/svg">
<path d="M19.5351 2.60352H6.58501C4.37069 2.60352 2.56567 4.40855 2.56567 6.62286V19.5729C2.56567 21.7872 4.37069 23.5923 6.58501 23.5923H19.5351C21.4451 23.5923 23.0402 22.249 23.4495 20.465C23.5125 20.3495 23.5544 20.2236 23.5544 20.0872V6.62286C23.5544 4.40855 21.7494 2.60352 19.5351 2.60352ZM20.3222 14.1788C20.3222 14.6091 19.9654 14.9659 19.5351 14.9659C19.0943 14.9659 18.748 14.6091 18.748 14.1788V12.017C18.748 11.5867 19.0943 11.2299 19.5351 11.2299C19.9654 11.2299 20.3222 11.5867 20.3222 12.017V14.1788ZM5.79793 14.1788V12.017C5.79793 11.5867 6.15474 11.2299 6.58501 11.2299C7.02577 11.2299 7.37209 11.5867 7.37209 12.017V14.1788C7.37209 14.6091 7.02577 14.9659 6.58501 14.9659C6.15474 14.9659 5.79793 14.6091 5.79793 14.1788ZM17.0794 9.86563V16.3302C17.0794 16.7709 16.7331 17.1172 16.2923 17.1172C15.862 17.1172 15.5052 16.7709 15.5052 16.3302V9.86563C15.5052 9.42486 15.862 9.07855 16.2923 9.07855C16.7331 9.07855 17.0794 9.42486 17.0794 9.86563ZM13.8471 7.70379V18.492C13.8471 18.9223 13.4903 19.2791 13.0601 19.2791C12.6298 19.2791 12.273 18.9223 12.273 18.492V7.70379C12.273 7.27352 12.6298 6.91671 13.0601 6.91671C13.4903 6.91671 13.8471 7.27352 13.8471 7.70379ZM10.6149 9.86563V16.3302C10.6149 16.7709 10.2581 17.1172 9.8278 17.1172C9.38704 17.1172 9.04072 16.7709 9.04072 16.3302V9.86563C9.04072 9.42486 9.38704 9.07855 9.8278 9.07855C10.2581 9.07855 10.6149 9.42486 10.6149 9.86563Z" fill="black"/>
</svg>
