<svg width="27" height="26" viewBox="0 0 27 26" fill="none" xmlns="http://www.w3.org/2000/svg">
<path d="M12.6551 9.96289V11.9778C11.8995 11.7889 11.3958 11.3586 11.3958 10.9704C11.3958 10.5716 11.8995 10.1413 12.6551 9.96289Z" fill="black"/>
<path d="M15.4886 14.7482C15.4886 15.1365 14.9848 15.5668 14.2292 15.7556V13.7407C14.9848 13.9191 15.4886 14.3494 15.4886 14.7482Z" fill="black"/>
<path d="M20.6729 5.61834C18.7419 3.68737 16.1708 2.62744 13.4422 2.62744C10.7137 2.62744 8.14257 3.68737 6.2116 5.61834C4.27014 7.54931 3.21021 10.1204 3.21021 12.8595C3.21021 14.2027 3.47257 15.525 3.98679 16.7739C4.50102 18.0227 5.25661 19.1351 6.2116 20.0901C7.15609 21.0451 8.27899 21.7902 9.52782 22.3044C10.7767 22.8291 12.0885 23.0915 13.4422 23.0915C14.796 23.0915 16.1078 22.8291 17.3566 22.3044C18.6055 21.7902 19.7284 21.0451 20.6729 20.0901C21.6278 19.1351 22.3834 18.0227 22.8977 16.7739C23.4119 15.525 23.6743 14.2027 23.6743 12.8595C23.6743 10.1204 22.6143 7.54931 20.6729 5.61834ZM14.2293 17.3616V17.5819C14.2293 18.0122 13.8725 18.369 13.4422 18.369C13.012 18.369 12.6551 18.0122 12.6551 17.5819V17.3511C11.7316 17.2041 10.9131 16.8054 10.3884 16.2072C10.1575 15.9343 10.1365 15.5355 10.3464 15.2417C10.5563 14.9373 10.9341 14.8324 11.2699 14.9583L12.6551 15.4831V13.5731C11.018 13.3212 9.82167 12.2613 9.82167 10.9705C9.82167 9.66917 11.018 8.61973 12.6551 8.35737V8.13699C12.6551 7.69623 13.012 7.34991 13.4422 7.34991C13.8725 7.34991 14.2293 7.69623 14.2293 8.13699V8.35737C15.1528 8.51479 15.9714 8.91358 16.4961 9.50127C16.727 9.77412 16.748 10.1729 16.5381 10.4772C16.3912 10.6871 16.1498 10.8131 15.8979 10.8131C15.8035 10.8131 15.709 10.7921 15.6146 10.7606L14.2293 10.2254V12.1353C15.8664 12.3872 17.0628 13.4472 17.0628 14.7485C17.0628 16.0498 15.8664 17.0992 14.2293 17.3616Z" fill="black"/>
</svg>
